<svg width="61" height="62" viewBox="0 0 61 62" fill="none" xmlns="http://www.w3.org/2000/svg">
<path fill-rule="evenodd" clip-rule="evenodd" d="M30.336 0.102051C47.0902 0.102051 60.6721 13.9401 60.6721 31.0103C60.6721 48.0804 47.0902 61.9185 30.336 61.9185C13.5819 61.9185 0 48.0804 0 31.0103C0 13.9401 13.5819 0.102051 30.336 0.102051ZM42.6153 28.7971L37.349 29.3704C36.659 29.4466 36.1659 30.0518 36.1674 30.7596V30.7725C36.1674 34.2489 33.406 37.0671 29.999 37.0676C26.5915 37.0671 23.8295 34.2489 23.8295 30.7725V30.7596C23.8305 30.0518 23.3379 29.4466 22.6479 29.3704L17.3827 28.7971C17.334 29.2555 17.3028 29.7187 17.3028 30.19C17.3028 37.3333 22.9972 43.1446 29.999 43.1446C36.9992 43.1446 42.6952 37.3333 42.6952 30.19C42.6952 29.7187 42.6634 29.2555 42.6153 28.7971ZM30.0364 17.6549C27.3061 17.6549 25.0928 19.91 25.0928 22.6918C25.0928 25.4735 27.3061 27.7287 30.0364 27.7287C32.7667 27.7287 34.9801 25.4735 34.9801 22.6918C34.9801 19.91 32.7667 17.6549 30.0364 17.6549Z" fill="#151515"/>
</svg>
