<svg width="121" height="46" viewBox="0 0 121 46" fill="none" xmlns="http://www.w3.org/2000/svg">
<path d="M88.185 1.54883H80.4493V32.3884H88.185V1.54883Z" fill="#151515"/>
<path d="M18.3619 37.9156C15.6317 37.9156 9.93523 37.7096 5.78931 37.4863V44.7154C9.15998 44.8528 17.5024 45.5396 22.0022 44.5265C25.828 43.6851 29.6031 41.2812 30.6817 37.9156H18.3619Z" fill="#151515"/>
<path d="M72.2921 17.1572C72.2565 12.7564 70.5076 8.54994 67.4296 5.4622C64.3516 2.37446 60.1964 0.658018 55.877 0.690026C53.7368 0.671912 51.614 1.08348 49.63 1.90125C47.6459 2.71901 45.8393 3.92695 44.3135 5.45609C42.7876 6.98522 41.5723 8.80561 40.7369 10.8133C39.9016 12.821 39.4626 14.9767 39.4449 17.1572C39.4626 19.3355 39.9012 21.489 40.7357 23.4946C41.5702 25.5002 42.7842 27.3187 44.3085 28.8462C45.8328 30.3738 47.6375 31.5805 49.6196 32.3974C51.6016 33.2143 53.7221 33.6254 55.8601 33.6073C60.1766 33.6393 64.3293 31.9252 67.4068 28.8412C70.4843 25.7571 72.2352 21.5551 72.2753 17.1572H72.2921ZM55.877 25.7428C54.222 25.6922 52.6183 25.146 51.2662 24.1724C49.9141 23.1987 48.8735 21.8409 48.2743 20.2683C47.6751 18.6957 47.5438 16.9781 47.897 15.3299C48.2501 13.6818 49.072 12.1762 50.2599 11.0011C51.4478 9.82601 52.9492 9.03352 54.5766 8.72259C56.2039 8.41165 57.8851 8.59605 59.4102 9.25276C60.9353 9.90947 62.2367 11.0094 63.152 12.4152C64.0672 13.821 64.5557 15.4703 64.5565 17.1572C64.5165 19.4663 63.5812 21.6655 61.9549 23.2742C60.3286 24.8829 58.1435 25.7704 55.877 25.7428Z" fill="#151515"/>
<path d="M109.555 25.349C106.774 24.851 105.207 22.7733 105.039 19.0128C104.87 15.2523 104.701 1.68701 104.701 1.68701H97.4039C97.4039 3.52433 97.505 16.4371 97.6399 20.5754C97.8758 27.2893 101.263 31.1357 107.482 32.372C111.95 32.9985 116.474 33.1022 120.965 32.6811V25.555C117.165 25.8976 113.341 25.8286 109.555 25.349Z" fill="#151515"/>
<path d="M32.0297 1.89072C32.0297 1.89072 19.5583 1.66749 15.3618 1.89072C13.4695 1.89072 11.5957 2.27046 9.84745 3.00827C8.0992 3.74608 6.51069 4.82751 5.17264 6.1908C3.83458 7.55409 2.77317 9.17256 2.04902 10.9538C1.32487 12.735 0.952148 14.6441 0.952148 16.5721C0.952148 18.5001 1.32487 20.4092 2.04902 22.1904C2.77317 23.9717 3.83458 25.5901 5.17264 26.9534C6.51069 28.3167 8.0992 29.3982 9.84745 30.136C11.5957 30.8738 13.4695 31.2535 15.3618 31.2535C19.5583 31.4767 32.0297 31.2535 32.0297 31.2535C32.0297 30.3434 32.0297 23.4921 32.0297 16.5721C32.0297 9.65211 32.0297 2.80079 32.0297 1.89072ZM24.53 23.578C21.7661 23.578 19.6931 23.578 17.0303 23.578C12.3787 23.578 8.60357 20.6245 8.60357 16.5893C8.60357 12.554 12.3787 9.56626 17.0303 9.44606C17.5696 9.44606 21.7829 9.44606 24.53 9.44606V23.578Z" fill="#151515"/>
</svg>
