<?xml version="1.0" encoding="UTF-8"?>
<svg width="290px" height="73px" viewBox="0 0 290 73" version="1.1" xmlns="http://www.w3.org/2000/svg" xmlns:xlink="http://www.w3.org/1999/xlink">
    <title>Group 2</title>
    <g id="Linkedin-Decks" stroke="none" stroke-width="1" fill="none" fill-rule="evenodd">
        <g id="1-copy-17" transform="translate(-113.000000, -103.000000)" fill="#3A3A3A">
            <g id="Group-2" transform="translate(113.000000, 103.000000)">
                <g id="Group-2087" transform="translate(87.600000, 0.000000)">
                    <path d="M29.2527083,61.2256036 C24.6940208,61.2256036 15.1049599,60.8922924 8.20479028,60.5222604 L8.20479028,72.4084782 C13.9525779,72.6542246 27.8348266,73.7614958 35.3761499,72.1118877 C41.7679156,70.7108506 48.1003676,66.7647845 49.9164991,61.2256036 L29.2527083,61.2256036 Z" id="Fill-2079"></path>
                    <path d="M92.1247489,41.1921858 C84.0496016,41.1893611 77.5589795,34.8536229 77.5533306,27.0716528 C77.561804,19.2162413 84.1286866,12.9539446 92.1247489,12.9539446 C100.197072,12.9567693 106.690518,19.2925075 106.693343,27.0716528 C106.687694,34.929889 100.117987,41.1921858 92.1247489,41.1921858 L92.1247489,41.1921858 Z M119.643518,27.0716528 L119.643518,27.0716528 C119.651991,12.1630366 107.357092,4.9332089e-07 92.1275734,4.9332089e-07 L92.1247489,4.9332089e-07 C76.9347726,-0.00282368471 64.6003311,12.1206665 64.6031536,27.0716528 C64.5975066,41.9830938 76.8895812,54.1433052 92.1191,54.1433052 L92.1247489,54.1433052 C107.311901,54.1461294 119.646342,42.0282886 119.646342,27.0716528 L119.643518,27.0716528 Z" id="Fill-2081"></path>
                    <path d="M182.195829,40.5605892 C177.552407,39.7273111 174.928479,36.3235819 174.634734,30.1262526 C174.363586,24.3159033 174.07549,1.63661567 174.07549,1.63661567 C169.437717,1.64791435 164.7717,1.66203771 161.831431,1.66768705 C161.831431,4.68161157 162.006548,25.9231414 162.249452,32.8859567 C162.627931,43.9191237 168.299458,50.2407385 178.738683,52.2716774 C186.576575,53.7941753 195.691126,53.0286893 201.436089,52.7829429 L201.436089,40.8967251 C193.058724,41.3458479 186.714974,41.37127 182.195829,40.5605892" id="Fill-2083"></path>
                    <path d="M39.5990085,37.6545672 C34.9781827,37.6884632 31.4871431,37.7110606 27.0414342,37.6234958 C19.2317866,37.4737882 12.9106325,32.7565868 12.907808,26.1186087 C12.9106325,19.4778059 19.2317866,14.5544035 27.0414342,14.3595011 C27.9396143,14.3397284 34.9894805,14.3849232 39.5990085,14.3849232 L39.5990085,37.6545672 Z M52.1594072,1.96201783 C52.1594072,1.96201783 31.2724837,1.60328454 24.2339153,1.96201783 C10.1087626,2.68230906 0.00564893131,13.9329757 0,26.1186087 C0.00564893131,38.3014169 10.1087626,49.5520836 24.2339153,50.2723749 C31.2724837,50.6311081 52.1594072,50.2723749 52.1594072,50.2723749 C52.1594072,48.7696496 52.261088,37.4992102 52.1594072,26.1186087 C52.261088,14.7351824 52.1594072,3.46474307 52.1594072,1.96201783 L52.1594072,1.96201783 Z" id="Fill-2085"></path>
                    <polygon id="Fill-2078" points="132.827067 52.1428573 145.999999 52.1428573 145.999999 1.64661702 132.827067 1.64661702"></polygon>
                </g>
                <g id="Group-2063" transform="translate(0.000000, 3.000000)">
                    <path d="M44,12.5 C44,19.4035247 38.4035247,25 31.5,25 C24.5964753,25 19,19.4035247 19,12.5 C19,5.59647525 24.5964753,0 31.5,0 C38.4035247,0 44,5.59647525 44,12.5" id="Fill-2059"></path>
                    <path d="M63,29.3979304 C63,28.2481656 62.9212336,27.1181562 62.8017712,26 L49.7357366,27.398683 C48.02388,27.5843838 46.8003751,29.0607714 46.8043134,30.7873942 L46.8043134,30.8190028 C46.8043134,39.2993415 39.9529485,46.1742239 31.5,46.1755409 C23.0457387,46.1742239 16.1930611,39.2993415 16.1930611,30.8190028 L16.1930611,30.7873942 C16.1956866,29.0607714 14.9734945,27.5843838 13.2616378,27.398683 L0.198228798,26 C0.0774536362,27.1181562 0,28.2481656 0,29.3979304 C0,46.8235183 14.1280683,61 31.5,61 C48.8679933,61 63,46.8235183 63,29.3979304" id="Fill-2061"></path>
                </g>
            </g>
        </g>
    </g>
</svg>