<?xml version="1.0" encoding="UTF-8"?>
<svg id="Capa_1" data-name="Capa 1" xmlns="http://www.w3.org/2000/svg" viewBox="0 0 1647.51 2402.15">
  <defs>
    <style>
      .cls-1 {
        fill: #ebebeb;
      }
    </style>
  </defs>
  <path class="cls-1" d="M761.66,16.44c38.39-21.92,85.81-21.92,124.2,0,10.68,6.1,18.76,12.75,25,19.08,46.02,46.7,62.5,73.78,62.5,73.78,1.32,2.17,3.27,5.46,7.17,8.2,19.04,13.35,52.76-8.87,85.05-25.62,0,0,46.55-39.7,168.79-46.11,9.53-.5,30.81-1.08,33.81,7.17,1.6,4.39-1.95,11.34-6.15,15.37-4.11,3.94-8.85,5.09-9.7,5.31-10.6,2.8-91.14,48.7-253.42,116.97h0s23.01,84.23,33.74,173.2c8.01,66.37,2.26,38.01,13.5,97.21,6.83,35.98,15.28,65.03,21.48,84.27h0s135.77,75.25,217.22,145.8c74.01,64.11,108.85,103,178.53,240.78,68.16,134.77,119.61,236.5,133.9,377.9,6.06,59.96,2.22,95.31,15.15,214.25,5.23,48.16,6.83,51.26,21.91,173.75,8.15,66.19,17.51,144.97,10.96,226.96-.55,6.88-4.32,49.84-25.04,100.18-10.68,25.95-16.27,39.09-28.17,46.96-17.63,11.65-31.63,4.74-122.09-7.83-30.76-4.27-38.2-4.73-50.09-10.96-22.2-11.63-36.58-31.16-50.09-59.48-41-85.94-39.91-181.4-39.13-206.62.65-20.97,2.59-42.41-3.13-73.57-7.07-38.52-20.2-133.82-21.4-142.93-18.7-142.58-60.89-217.72-55.3-218.65,3.29-.55,18,63.99,26.61,117.4,15.5,96.13,4.92,117.23,10.96,252.01,6.66,148.57,22.8,196.4,20.35,283.31-.44,15.51-1.65,38.71,3.13,70.44,6.57,43.6,16.59,51.02,21.91,92.35,3.94,30.61,7.45,57.79-6.26,87.66-12.59,27.42-33.35,43.34-40.7,48.52-17.32,12.24-33.61,16.85-40.7,18.78-203.7,55.7-281.75,67.31-281.75,67.31-43.62,6.49-46.6,4.21-106.02,11.24-9.93,1.17-41.89,1.88-51.81.71-59.41-7.03-79.86-5.46-123.48-11.95,0,0-78.05-11.61-281.75-67.31-7.09-1.94-23.37-6.54-40.7-18.78-7.34-5.19-28.11-21.1-40.7-48.52-13.71-29.87-10.21-57.04-6.26-87.66,5.33-41.33,15.34-48.75,21.91-92.35,4.78-31.72,3.57-54.93,3.13-70.44-2.46-86.92,13.69-134.75,20.35-283.31,6.04-134.77-4.54-155.88,10.96-252.01,8.61-53.4,23.32-117.94,26.61-117.4,5.59.93-33.12,76.41-53.47,213.97-1.35,9.09-16.15,109.09-23.22,147.6-5.72,31.15-3.78,52.6-3.13,73.57.78,25.22,1.87,120.67-39.13,206.62-13.51,28.32-27.89,47.85-50.09,59.48-11.89,6.23-19.33,6.69-50.09,10.96-90.46,12.56-104.46,19.48-122.09,7.83-11.91-7.87-17.49-21.01-28.17-46.96-20.72-50.34-24.49-93.29-25.04-100.18-6.55-81.99,2.81-160.78,10.96-226.96,15.08-122.49,16.68-125.58,21.91-173.75,12.93-118.95,9.09-154.29,15.15-214.25,14.29-141.39,65.74-243.12,133.9-377.9,69.68-137.77,104.52-176.66,178.53-240.78,81.45-70.55,217.21-145.8,217.22-145.8h0c6.21-19.25,14.66-48.29,21.48-84.27,11.23-59.2,5.49-30.84,13.5-97.21,10.73-88.97,33.74-173.2,33.74-173.2h0c-162.28-68.26-242.81-114.17-253.42-116.97-.84-.22-5.59-1.37-9.7-5.31-4.2-4.03-7.74-10.98-6.15-15.37,3-8.25,24.28-7.67,33.81-7.17,122.23,6.41,168.79,46.11,168.79,46.11,32.29,16.75,66.01,38.97,85.05,25.62,3.9-2.73,5.85-6.02,7.17-8.2,0,0,16.48-27.07,62.5-73.78,6.24-6.33,14.32-12.99,25-19.08Z"/>
</svg>