<?xml version="1.0" encoding="UTF-8"?>
<svg width="75px" height="102px" viewBox="0 0 75 102" version="1.1" xmlns="http://www.w3.org/2000/svg" xmlns:xlink="http://www.w3.org/1999/xlink">
    <title>panic</title>
    <g id="Xàbia" stroke="none" stroke-width="1" fill="none" fill-rule="evenodd">
        <g id="3" transform="translate(-29.000000, -15.000000)" fill="#FFFFFF" fill-rule="nonzero">
            <g id="panic" transform="translate(29.000000, 15.000000)">
                <path d="M64.4585799,80.1661684 L64.4585799,51.0612245 C64.4585799,36.1397449 52.3650799,24 37.5,24 C22.6349201,24 10.5414201,36.1397449 10.5414201,51.0612245 L10.5414201,80.1661684 C6.75136095,81.388898 4,84.9601837 4,89.1658163 L4,102 L71,102 L71,89.1658163 C71,84.9601837 68.2486391,81.388898 64.4585799,80.1661684 Z M16.4881657,73.1479592 L58.5118343,73.1479592 L58.5118343,79.7142857 L16.4881657,79.7142857 L16.4881657,73.1479592 Z M37.5,29.9693878 C49.0860444,29.9693878 58.5118343,39.4312653 58.5118343,51.0612245 L58.5118343,67.1785714 L16.4881657,67.1785714 L16.4881657,51.0612245 C16.4881657,39.4312653 25.9139556,29.9693878 37.5,29.9693878 Z M65.0532544,96.0306122 L9.94674556,96.0306122 L9.94674556,89.1658163 C9.94674556,87.2458622 11.5030089,85.6836735 13.4156805,85.6836735 L61.5843195,85.6836735 C63.4969911,85.6836735 65.0532544,87.2458622 65.0532544,89.1658163 L65.0532544,96.0306122 Z" id="Shape"></path>
                <polygon id="Path" points="34 0 41 0 41 14 34 14"></polygon>
                <polygon id="Path" points="48 14.8540277 53.8853503 2 60 4.14597226 54.1146497 17"></polygon>
                <polygon id="Path" points="61 22.1460756 70.6111425 12 75 15.8539244 65.3888575 26"></polygon>
                <polygon id="Path" points="15 4.14597226 21.1146497 2 27 14.8540277 20.8853503 17"></polygon>
                <polygon id="Path" points="0 15.8539087 4.38883264 12 14 22.1460913 9.61116736 26"></polygon>
                <polygon id="Path" points="34 37 41 37 41 53 34 53"></polygon>
                <polygon id="Path" points="34 57 41 57 41 64 34 64"></polygon>
            </g>
        </g>
    </g>
</svg>